<svg xmlns="http://www.w3.org/2000/svg" xmlns:xlink="http://www.w3.org/1999/xlink" width="1920" height="1080" viewBox="0 0 1920 1080">
  <defs>
    <filter id="Rectangle_1" x="135" y="91" width="704" height="704" filterUnits="userSpaceOnUse">
      <feOffset dx="10" dy="10" input="SourceAlpha"/>
      <feGaussianBlur stdDeviation="5" result="blur"/>
      <feFlood flood-opacity="0.039"/>
      <feComposite operator="in" in2="blur"/>
      <feComposite in="SourceGraphic"/>
    </filter>
    <filter id="Rectangle_11" x="115" y="71" width="704" height="704" filterUnits="userSpaceOnUse">
      <feOffset dx="-10" dy="-10" input="SourceAlpha"/>
      <feGaussianBlur stdDeviation="5" result="blur-2"/>
      <feFlood flood-color="#fff" flood-opacity="0.349"/>
      <feComposite operator="in" in2="blur-2"/>
      <feComposite in="SourceGraphic"/>
    </filter>
    <filter id="Exclusion_2" x="203.5" y="361.5" width="153" height="153" filterUnits="userSpaceOnUse">
      <feOffset dx="5" dy="5" input="SourceAlpha"/>
      <feGaussianBlur stdDeviation="2.5" result="blur-3"/>
      <feFlood flood-color="#070707" flood-opacity="0.102"/>
      <feComposite operator="in" in2="blur-3"/>
      <feComposite in="SourceGraphic"/>
    </filter>
    <filter id="Exclusion_4" x="193.5" y="351.5" width="153" height="153" filterUnits="userSpaceOnUse">
      <feOffset dx="-5" dy="-5" input="SourceAlpha"/>
      <feGaussianBlur stdDeviation="2.5" result="blur-4"/>
      <feFlood flood-color="#fff" flood-opacity="0.431"/>
      <feComposite operator="in" in2="blur-4"/>
      <feComposite in="SourceGraphic"/>
    </filter>
    <filter id="Exclusion_2-2" x="404.5" y="160.5" width="153" height="153" filterUnits="userSpaceOnUse">
      <feOffset dx="5" dy="5" input="SourceAlpha"/>
      <feGaussianBlur stdDeviation="2.5" result="blur-5"/>
      <feFlood flood-color="#070707" flood-opacity="0.102"/>
      <feComposite operator="in" in2="blur-5"/>
      <feComposite in="SourceGraphic"/>
    </filter>
    <filter id="Exclusion_4-2" x="394.5" y="150.5" width="153" height="153" filterUnits="userSpaceOnUse">
      <feOffset dx="-5" dy="-5" input="SourceAlpha"/>
      <feGaussianBlur stdDeviation="2.5" result="blur-6"/>
      <feFlood flood-color="#fff" flood-opacity="0.431"/>
      <feComposite operator="in" in2="blur-6"/>
      <feComposite in="SourceGraphic"/>
    </filter>
    <filter id="Exclusion_2-3" x="404.5" y="562.5" width="153" height="153" filterUnits="userSpaceOnUse">
      <feOffset dx="5" dy="5" input="SourceAlpha"/>
      <feGaussianBlur stdDeviation="2.5" result="blur-7"/>
      <feFlood flood-color="#070707" flood-opacity="0.102"/>
      <feComposite operator="in" in2="blur-7"/>
      <feComposite in="SourceGraphic"/>
    </filter>
    <filter id="Exclusion_4-3" x="394.5" y="552.5" width="153" height="153" filterUnits="userSpaceOnUse">
      <feOffset dx="-5" dy="-5" input="SourceAlpha"/>
      <feGaussianBlur stdDeviation="2.5" result="blur-8"/>
      <feFlood flood-color="#fff" flood-opacity="0.431"/>
      <feComposite operator="in" in2="blur-8"/>
      <feComposite in="SourceGraphic"/>
    </filter>
    <filter id="Exclusion_2-4" x="404.5" y="361.5" width="153" height="153" filterUnits="userSpaceOnUse">
      <feOffset dx="5" dy="5" input="SourceAlpha"/>
      <feGaussianBlur stdDeviation="2.5" result="blur-9"/>
      <feFlood flood-color="#070707" flood-opacity="0.102"/>
      <feComposite operator="in" in2="blur-9"/>
      <feComposite in="SourceGraphic"/>
    </filter>
    <filter id="Exclusion_4-4" x="394.5" y="351.5" width="153" height="153" filterUnits="userSpaceOnUse">
      <feOffset dx="-5" dy="-5" input="SourceAlpha"/>
      <feGaussianBlur stdDeviation="2.5" result="blur-10"/>
      <feFlood flood-color="#fff" flood-opacity="0.431"/>
      <feComposite operator="in" in2="blur-10"/>
      <feComposite in="SourceGraphic"/>
    </filter>
    <filter id="Exclusion_2-5" x="605.5" y="361.5" width="153" height="153" filterUnits="userSpaceOnUse">
      <feOffset dx="5" dy="5" input="SourceAlpha"/>
      <feGaussianBlur stdDeviation="2.5" result="blur-11"/>
      <feFlood flood-color="#070707" flood-opacity="0.102"/>
      <feComposite operator="in" in2="blur-11"/>
      <feComposite in="SourceGraphic"/>
    </filter>
    <filter id="Exclusion_4-5" x="595.5" y="351.5" width="153" height="153" filterUnits="userSpaceOnUse">
      <feOffset dx="-5" dy="-5" input="SourceAlpha"/>
      <feGaussianBlur stdDeviation="2.5" result="blur-12"/>
      <feFlood flood-color="#fff" flood-opacity="0.431"/>
      <feComposite operator="in" in2="blur-12"/>
      <feComposite in="SourceGraphic"/>
    </filter>
    <filter id="Exclusion_5" x="120" y="77" width="732" height="732" filterUnits="userSpaceOnUse">
      <feOffset dx="10" dy="10" input="SourceAlpha"/>
      <feGaussianBlur stdDeviation="10" result="blur-13"/>
      <feFlood flood-opacity="0.122"/>
      <feComposite operator="in" in2="blur-13"/>
      <feComposite in="SourceGraphic"/>
    </filter>
    <filter id="Exclusion_6" x="100" y="57" width="732" height="732" filterUnits="userSpaceOnUse">
      <feOffset dx="-10" dy="-10" input="SourceAlpha"/>
      <feGaussianBlur stdDeviation="10" result="blur-14"/>
      <feFlood flood-color="#fff" flood-opacity="0.369"/>
      <feComposite operator="in" in2="blur-14"/>
      <feComposite in="SourceGraphic"/>
    </filter>
    <filter id="Union_4" x="787.178" y="-20.083" width="363.589" height="1140.084" filterUnits="userSpaceOnUse">
      <feOffset dx="10" dy="10" input="SourceAlpha"/>
      <feGaussianBlur stdDeviation="10" result="blur-15"/>
      <feFlood flood-opacity="0.09"/>
      <feComposite operator="in" in2="blur-15"/>
      <feComposite in="SourceGraphic"/>
    </filter>
    <filter id="Union_3" x="767.178" y="-40.083" width="363.589" height="1140.084" filterUnits="userSpaceOnUse">
      <feOffset dx="-10" dy="-10" input="SourceAlpha"/>
      <feGaussianBlur stdDeviation="10" result="blur-16"/>
      <feFlood flood-color="#fff" flood-opacity="0.502"/>
      <feComposite operator="in" in2="blur-16"/>
      <feComposite in="SourceGraphic"/>
    </filter>
    <clipPath id="clip-Web_1920_2">
      <rect width="1920" height="1080"/>
    </clipPath>
  </defs>
  <g id="Web_1920_2" data-name="Web 1920 – 2" clip-path="url(#clip-Web_1920_2)">
    <rect width="1920" height="1080" fill="#fff"/>
    <rect id="Rectangle_8" data-name="Rectangle 8" width="1920" height="1080" fill="#efeeee"/>
    <g id="Arène" transform="translate(0 -38)">
      <g transform="matrix(1, 0, 0, 1, 0, 38)" filter="url(#Rectangle_1)">
        <rect id="Rectangle_1-2" data-name="Rectangle 1" width="674" height="674" rx="62" transform="translate(140 96)" fill="#efeeee"/>
      </g>
      <g transform="matrix(1, 0, 0, 1, 0, 38)" filter="url(#Rectangle_11)">
        <rect id="Rectangle_11-2" data-name="Rectangle 11" width="674" height="674" rx="62" transform="translate(140 96)" fill="#efeeee"/>
      </g>
      <g id="Dé" transform="translate(-72 130)">
        <g transform="matrix(1, 0, 0, 1, 72, -92)" filter="url(#Exclusion_2)">
          <path id="Exclusion_2-6" data-name="Exclusion 2" d="M126,138H12A12,12,0,0,1,0,126V12A12,12,0,0,1,12,0H126a12,12,0,0,1,12,12V126a12,12,0,0,1-12,12Zm-20.246-37.794a10.055,10.055,0,1,0,10.055,10.055A10.067,10.067,0,0,0,105.755,100.206Zm-73.507,0A10.055,10.055,0,1,0,42.3,110.261,10.067,10.067,0,0,0,32.247,100.206ZM69,58.945A10.055,10.055,0,1,0,79.056,69,10.066,10.066,0,0,0,69,58.945Zm36.754-38.488a10.055,10.055,0,1,0,10.055,10.056A10.067,10.067,0,0,0,105.755,20.457Zm-73.507,0A10.055,10.055,0,1,0,42.3,30.513,10.067,10.067,0,0,0,32.247,20.457Z" transform="translate(206 364)" fill="#efeeee"/>
        </g>
        <g transform="matrix(1, 0, 0, 1, 72, -92)" filter="url(#Exclusion_4)">
          <path id="Exclusion_4-6" data-name="Exclusion 4" d="M123,138H15A15,15,0,0,1,0,123V15A15,15,0,0,1,15,0H123a15,15,0,0,1,15,15V123a15,15,0,0,1-15,15Zm-17.246-37.794a10.055,10.055,0,1,0,10.055,10.055A10.067,10.067,0,0,0,105.755,100.206Zm-73.507,0A10.055,10.055,0,1,0,42.3,110.261,10.067,10.067,0,0,0,32.247,100.206ZM69,58.945A10.055,10.055,0,1,0,79.056,69,10.066,10.066,0,0,0,69,58.945Zm36.754-38.488a10.055,10.055,0,1,0,10.055,10.056A10.067,10.067,0,0,0,105.755,20.457Zm-73.507,0A10.055,10.055,0,1,0,42.3,30.513,10.067,10.067,0,0,0,32.247,20.457Z" transform="translate(206 364)" fill="#efeeee"/>
        </g>
      </g>
      <g id="Dé-2" data-name="Dé" transform="translate(129 -71)">
        <g transform="matrix(1, 0, 0, 1, -129, 109)" filter="url(#Exclusion_2-2)">
          <path id="Exclusion_2-7" data-name="Exclusion 2" d="M126,138H12A12,12,0,0,1,0,126V12A12,12,0,0,1,12,0H126a12,12,0,0,1,12,12V126a12,12,0,0,1-12,12Zm-20.246-37.794a10.055,10.055,0,1,0,10.055,10.055A10.067,10.067,0,0,0,105.755,100.206Zm-73.507,0A10.055,10.055,0,1,0,42.3,110.261,10.067,10.067,0,0,0,32.247,100.206ZM69,58.945A10.055,10.055,0,1,0,79.056,69,10.066,10.066,0,0,0,69,58.945Zm36.754-38.488a10.055,10.055,0,1,0,10.055,10.056A10.067,10.067,0,0,0,105.755,20.457Zm-73.507,0A10.055,10.055,0,1,0,42.3,30.513,10.067,10.067,0,0,0,32.247,20.457Z" transform="translate(407 163)" fill="#efeeee"/>
        </g>
        <g transform="matrix(1, 0, 0, 1, -129, 109)" filter="url(#Exclusion_4-2)">
          <path id="Exclusion_4-7" data-name="Exclusion 4" d="M123,138H15A15,15,0,0,1,0,123V15A15,15,0,0,1,15,0H123a15,15,0,0,1,15,15V123a15,15,0,0,1-15,15Zm-17.246-37.794a10.055,10.055,0,1,0,10.055,10.055A10.067,10.067,0,0,0,105.755,100.206Zm-73.507,0A10.055,10.055,0,1,0,42.3,110.261,10.067,10.067,0,0,0,32.247,100.206ZM69,58.945A10.055,10.055,0,1,0,79.056,69,10.066,10.066,0,0,0,69,58.945Zm36.754-38.488a10.055,10.055,0,1,0,10.055,10.056A10.067,10.067,0,0,0,105.755,20.457Zm-73.507,0A10.055,10.055,0,1,0,42.3,30.513,10.067,10.067,0,0,0,32.247,20.457Z" transform="translate(407 163)" fill="#efeeee"/>
        </g>
      </g>
      <g id="Dé-3" data-name="Dé" transform="translate(129 331)">
        <g transform="matrix(1, 0, 0, 1, -129, -293)" filter="url(#Exclusion_2-3)">
          <path id="Exclusion_2-8" data-name="Exclusion 2" d="M126,138H12A12,12,0,0,1,0,126V12A12,12,0,0,1,12,0H126a12,12,0,0,1,12,12V126a12,12,0,0,1-12,12Zm-20.246-37.794a10.055,10.055,0,1,0,10.055,10.055A10.067,10.067,0,0,0,105.755,100.206Zm-73.507,0A10.055,10.055,0,1,0,42.3,110.261,10.067,10.067,0,0,0,32.247,100.206ZM69,58.945A10.055,10.055,0,1,0,79.056,69,10.066,10.066,0,0,0,69,58.945Zm36.754-38.488a10.055,10.055,0,1,0,10.055,10.056A10.067,10.067,0,0,0,105.755,20.457Zm-73.507,0A10.055,10.055,0,1,0,42.3,30.513,10.067,10.067,0,0,0,32.247,20.457Z" transform="translate(407 565)" fill="#efeeee"/>
        </g>
        <g transform="matrix(1, 0, 0, 1, -129, -293)" filter="url(#Exclusion_4-3)">
          <path id="Exclusion_4-8" data-name="Exclusion 4" d="M123,138H15A15,15,0,0,1,0,123V15A15,15,0,0,1,15,0H123a15,15,0,0,1,15,15V123a15,15,0,0,1-15,15ZM69,58.945A10.055,10.055,0,1,0,79.055,69,10.067,10.067,0,0,0,69,58.945Z" transform="translate(407 565)" fill="#efeeee"/>
        </g>
      </g>
      <g id="Dé-4" data-name="Dé" transform="translate(129 130)">
        <g transform="matrix(1, 0, 0, 1, -129, -92)" filter="url(#Exclusion_2-4)">
          <path id="Exclusion_2-9" data-name="Exclusion 2" d="M126,138H12A12,12,0,0,1,0,126V12A12,12,0,0,1,12,0H126a12,12,0,0,1,12,12V126a12,12,0,0,1-12,12ZM69.755,99.206c-5.545,0-10.056,4.959-10.056,11.055s4.511,11.056,10.056,11.056,10.055-4.96,10.055-11.056S75.3,99.206,69.755,99.206Zm36,1a10.055,10.055,0,1,0,10.055,10.055A10.067,10.067,0,0,0,105.755,100.206Zm-73.507,0A10.055,10.055,0,1,0,42.3,110.261,10.067,10.067,0,0,0,32.247,100.206Zm-.493-41c-5.544,0-10.055,4.96-10.055,11.056S26.21,81.316,31.754,81.316,41.81,76.357,41.81,70.261,37.3,59.206,31.754,59.206ZM70,58.945C64.456,58.945,59.945,63.9,59.945,70S64.456,81.055,70,81.055,80.056,76.1,80.056,70,75.545,58.945,70,58.945Zm35.247,1.512c-6.1,0-11.056,4.511-11.056,10.056s4.96,10.056,11.056,10.056S116.3,76.057,116.3,70.512,111.342,60.457,105.247,60.457Zm-.493-41a11.055,11.055,0,1,0,11.056,11.056A11.068,11.068,0,0,0,104.754,19.457Zm-36.007,0A11.326,11.326,0,0,0,57.191,30.513a11.566,11.566,0,0,0,23.11,0A11.326,11.326,0,0,0,68.747,19.457Zm-36.5,1A10.055,10.055,0,1,0,42.3,30.513,10.067,10.067,0,0,0,32.247,20.457Z" transform="translate(407 364)" fill="#efeeee"/>
        </g>
        <g transform="matrix(1, 0, 0, 1, -129, -92)" filter="url(#Exclusion_4-4)">
          <path id="Exclusion_4-9" data-name="Exclusion 4" d="M123,138H15A15,15,0,0,1,0,123V15A15,15,0,0,1,15,0H123a15,15,0,0,1,15,15V123a15,15,0,0,1-15,15ZM69.755,100.457a10.055,10.055,0,1,0,10.055,10.055A10.067,10.067,0,0,0,69.755,100.457Zm36-.251a10.055,10.055,0,1,0,10.055,10.055A10.067,10.067,0,0,0,105.755,100.206Zm-73.507,0A10.055,10.055,0,1,0,42.3,110.261,10.067,10.067,0,0,0,32.247,100.206Zm73.507-39.749a10.056,10.056,0,1,0,10.055,10.056A10.067,10.067,0,0,0,105.755,60.457Zm-36,0A10.056,10.056,0,1,0,79.809,70.512,10.067,10.067,0,0,0,69.755,60.457Zm-38,0A10.056,10.056,0,1,0,41.81,70.512,10.067,10.067,0,0,0,31.754,60.457Zm74-40a10.055,10.055,0,1,0,10.055,10.056A10.067,10.067,0,0,0,105.755,20.457Zm-36,0A10.055,10.055,0,1,0,79.809,30.513,10.067,10.067,0,0,0,69.755,20.457Zm-37.507,0A10.055,10.055,0,1,0,42.3,30.513,10.067,10.067,0,0,0,32.247,20.457Z" transform="translate(407 364)" fill="#efeeee"/>
        </g>
      </g>
      <g id="Dé-5" data-name="Dé" transform="translate(330 130)">
        <g transform="matrix(1, 0, 0, 1, -330, -92)" filter="url(#Exclusion_2-5)">
          <path id="Exclusion_2-10" data-name="Exclusion 2" d="M126,138H12A12,12,0,0,1,0,126V12A12,12,0,0,1,12,0H126a12,12,0,0,1,12,12V126a12,12,0,0,1-12,12Zm-20.246-37.794a10.055,10.055,0,1,0,10.055,10.055A10.067,10.067,0,0,0,105.755,100.206Zm-73.507,0A10.055,10.055,0,1,0,42.3,110.261,10.067,10.067,0,0,0,32.247,100.206ZM69,58.945A10.055,10.055,0,1,0,79.056,69,10.066,10.066,0,0,0,69,58.945Zm36.754-38.488a10.055,10.055,0,1,0,10.055,10.056A10.067,10.067,0,0,0,105.755,20.457Zm-73.507,0A10.055,10.055,0,1,0,42.3,30.513,10.067,10.067,0,0,0,32.247,20.457Z" transform="translate(608 364)" fill="#efeeee"/>
        </g>
        <g transform="matrix(1, 0, 0, 1, -330, -92)" filter="url(#Exclusion_4-5)">
          <path id="Exclusion_4-10" data-name="Exclusion 4" d="M123,138H15A15,15,0,0,1,0,123V15A15,15,0,0,1,15,0H123a15,15,0,0,1,15,15V123a15,15,0,0,1-15,15ZM32.247,100.206A10.055,10.055,0,1,0,42.3,110.261,10.067,10.067,0,0,0,32.247,100.206Zm73.507-79.749a10.055,10.055,0,1,0,10.055,10.056A10.067,10.067,0,0,0,105.755,20.457Z" transform="translate(608 364)" fill="#efeeee"/>
        </g>
      </g>
      <g transform="matrix(1, 0, 0, 1, 0, 38)" filter="url(#Exclusion_5)">
        <path id="Exclusion_5-2" data-name="Exclusion 5" d="M620,672H52A51.957,51.957,0,0,1,0,620V52A51.957,51.957,0,0,1,52,0H620a51.957,51.957,0,0,1,52,52V620a51.957,51.957,0,0,1-52,52ZM67,15A52.058,52.058,0,0,0,15,67V605a52.059,52.059,0,0,0,52,52H605a52.059,52.059,0,0,0,52-52V67a52.059,52.059,0,0,0-52-52Z" transform="translate(140 97)" fill="#efeeee"/>
      </g>
      <g transform="matrix(1, 0, 0, 1, 0, 38)" filter="url(#Exclusion_6)">
        <path id="Exclusion_6-2" data-name="Exclusion 6" d="M620,672H52A51.957,51.957,0,0,1,0,620V52A51.957,51.957,0,0,1,52,0H620a51.957,51.957,0,0,1,52,52V620a51.957,51.957,0,0,1-52,52ZM67,15A52.058,52.058,0,0,0,15,67V605a52.059,52.059,0,0,0,52,52H605a52.059,52.059,0,0,0,52-52V67a52.059,52.059,0,0,0-52-52Z" transform="translate(140 97)" fill="#efeeee"/>
      </g>
    </g>
    <g transform="matrix(1, 0, 0, 1, 0, 0)" filter="url(#Union_4)">
      <path id="Union_4-2" data-name="Union 4" d="M144.822,1080.084a4,4,0,0,1-4-4V118.443H82.872c-48.473,0-41.846-49.231-41.846-49.231s.821-9.846,0-41.026C40.407,4.716,17.474.656,6.171.084H297.418c-11.3.572-34.237,4.632-34.854,28.1-.82,31.18,0,41.026,0,41.026s6.627,49.231-41.845,49.231h-63.9v957.641a4,4,0,0,1-4,4Zm152.6-1080a53.805,53.805,0,0,1,6.171,0ZM0,.084a53.805,53.805,0,0,1,6.171,0Z" transform="translate(807.18 -0.08)" fill="#efeeee"/>
    </g>
    <g transform="matrix(1, 0, 0, 1, 0, 0)" filter="url(#Union_3)">
      <path id="Union_3-2" data-name="Union 3" d="M144.822,1080.084a4,4,0,0,1-4-4V118.443H82.872c-48.473,0-41.846-49.231-41.846-49.231s.821-9.846,0-41.026C40.407,4.716,17.474.656,6.171.084H297.418c-11.3.572-34.237,4.632-34.854,28.1-.82,31.18,0,41.026,0,41.026s6.627,49.231-41.845,49.231h-63.9v957.641a4,4,0,0,1-4,4Zm152.6-1080a53.805,53.805,0,0,1,6.171,0ZM0,.084a53.805,53.805,0,0,1,6.171,0Z" transform="translate(807.18 -0.08)" fill="#efeeee"/>
    </g>
    <g id="Group_10" data-name="Group 10" transform="translate(596.233 -556.499)">
      <text id="ice" transform="translate(332.077 611.499)" fill="#3742fa" font-size="39" font-family="Comfortaa-Bold, Comfortaa" font-weight="700" letter-spacing="-0.059em"><tspan x="0" y="0">ice</tspan></text>
      <text id="esign" transform="translate(332.077 643.021)" fill="#3742fa" font-size="39" font-family="Comfortaa-Bold, Comfortaa" font-weight="700" letter-spacing="-0.059em"><tspan x="0" y="0">esign</tspan></text>
      <g id="Group_9" data-name="Group 9" transform="translate(286.767 585.787)">
        <circle id="Ellipse_29" data-name="Ellipse 29" cx="1.785" cy="1.785" r="1.785" transform="translate(18.864 28.12)" fill="#3742fa"/>
        <circle id="Ellipse_30" data-name="Ellipse 30" cx="1.785" cy="1.785" r="1.785" transform="translate(25.315 34.828)" fill="#3742fa"/>
        <path id="Path_1" data-name="Path 1" d="M329.613,607.641a27.167,27.167,0,0,0-10.606-10.606,31.038,31.038,0,0,0-15.469-3.829H289.754a2.883,2.883,0,0,0-2.987,2.987v53.836a2.883,2.883,0,0,0,2.987,2.987h13.784a31.027,31.027,0,0,0,15.469-3.829,27.087,27.087,0,0,0,10.606-10.644,33.38,33.38,0,0,0,0-30.9Zm-9.967,23.928a3.771,3.771,0,0,1-3.771,3.771H298.957a3.771,3.771,0,0,1-3.771-3.771V614.652a3.771,3.771,0,0,1,3.771-3.771h16.918a3.771,3.771,0,0,1,3.771,3.771Z" transform="translate(-286.767 -593.206)" fill="#3742fa"/>
        <circle id="Ellipse_31" data-name="Ellipse 31" cx="1.785" cy="1.785" r="1.785" transform="translate(12.155 21.669)" fill="#3742fa"/>
        <circle id="Ellipse_32" data-name="Ellipse 32" cx="1.785" cy="1.785" r="1.785" transform="translate(25.315 21.669)" fill="#3742fa"/>
        <circle id="Ellipse_33" data-name="Ellipse 33" cx="1.785" cy="1.785" r="1.785" transform="translate(12.155 34.828)" fill="#3742fa"/>
      </g>
    </g>
  </g>
</svg>
